<?xml version="1.0" standalone="no"?>
<!DOCTYPE svg PUBLIC "-//W3C//DTD SVG 20010904//EN"
 "http://www.w3.org/TR/2001/REC-SVG-20010904/DTD/svg10.dtd">
<svg version="1.0" xmlns="http://www.w3.org/2000/svg"
 width="2014.000000pt" height="2014.000000pt" viewBox="0 0 2014.000000 2014.000000"
 preserveAspectRatio="xMidYMid meet">
<metadata>
Created by potrace 1.11, written by Peter Selinger 2001-2013
</metadata>
<g transform="translate(0.000000,2014.000000) scale(0.100000,-0.100000)"
fill="#000000" stroke="none">
<path d="M7205 18551 c-1468 -867 -3266 -1928 -3995 -2358 l-1325 -782 -3
-208 -2 -209 1180 -597 c648 -328 1182 -597 1185 -597 3 0 5 94 5 208 l0 208
1037 573 c803 445 1040 572 1052 564 191 -117 2214 -1335 2225 -1339 10 -4
405 231 1093 651 593 362 1083 662 1090 669 9 8 -278 190 -1158 736 -644 398
-1172 727 -1174 730 -3 6 1477 944 1496 947 8 2 1378 -750 3044 -1670 l3030
-1674 3 -272 c2 -213 5 -272 15 -268 30 11 2243 1091 2255 1100 9 7 12 62 12
216 l0 206 -453 256 c-248 140 -2130 1206 -4182 2367 -2051 1161 -3737 2113
-3745 2115 -8 3 -1216 -704 -2685 -1572z"/>
<path d="M1880 9018 l0 -5283 1186 -540 c652 -297 1191 -542 1197 -544 7 -3 8
335 4 1122 l-6 1126 232 -114 c128 -62 1090 -541 2139 -1063 l1907 -951 -4
-88 c-3 -48 -7 -523 -9 -1054 l-5 -965 682 -328 682 -328 450 227 c248 125
546 277 663 337 l212 109 1 1387 c1 763 5 2410 8 3661 l6 2274 2385 1053 2385
1053 5 -2012 c3 -1107 5 -2014 3 -2016 -1 -2 -486 138 -1078 311 -592 173
-1074 310 -1072 303 6 -13 2166 -4037 2171 -4042 1 -2 507 241 1124 539 l1122
541 0 5269 c0 3619 -3 5268 -10 5268 -6 0 -1881 -867 -4168 -1926 -2286 -1060
-4167 -1931 -4179 -1936 -18 -9 -229 91 -1370 647 -5639 2750 -6654 3245
-6658 3245 -3 0 -5 -2377 -5 -5282z m3663 477 l929 -478 -24 -22 c-13 -13
-504 -417 -1093 -900 l-1070 -877 -6 379 c-3 208 -7 868 -8 1466 l-1 1089 173
-90 c94 -49 590 -304 1100 -567z m2953 -1522 l76 -38 -6 -800 c-13 -1703 -19
-2215 -25 -2215 -13 0 -2328 1205 -2330 1213 -1 6 2196 1875 2206 1877 2 0 37
-17 79 -37z"/>
</g>
</svg>
